<svg xmlns="http://www.w3.org/2000/svg" viewBox="0 0 1189.92 313.66"><g id="Layer_2" data-name="Layer 2"><g id="Layer_1-2" data-name="Layer 1"><path d="M387.47,109.18q11.31,0,18.06,5.5t9.74,15.47a81.73,81.73,0,0,1,3,23.32,67.71,67.71,0,0,1-3.6,22.91,34.09,34.09,0,0,1-10.87,15.8q-7.26,5.74-18.34,5.74-14,0-22.47-9.86v40.57l-13.58,1.7V111H361l1.13,11.88a33.55,33.55,0,0,1,11.2-10.1A29.07,29.07,0,0,1,387.47,109.18Zm-3.23,10.91a19.45,19.45,0,0,0-12.41,4.25,41.45,41.45,0,0,0-8.85,9.41v42.19a24.57,24.57,0,0,0,8.37,7.8,22.11,22.11,0,0,0,11.11,2.87q10.59,0,15.92-8.08t5.33-25.14a69.18,69.18,0,0,0-2.1-18.55q-2.1-7.4-6.38-11.07A16.29,16.29,0,0,0,384.24,120.09Z" fill="#231f20"/><path d="M515.57,101.91l4.2,12.77a49.43,49.43,0,0,1-11.56,2.1q-6.13.41-13.33.4A26.67,26.67,0,0,1,506,126a21.69,21.69,0,0,1,3.72,12.65,29.26,29.26,0,0,1-3.8,15,26.35,26.35,0,0,1-10.95,10.27q-7.16,3.72-17.26,3.71a52.64,52.64,0,0,1-7.15-.4,36.82,36.82,0,0,1-5.54-1.21,10.09,10.09,0,0,0-3.19,3.55,9.64,9.64,0,0,0-1.25,4.69,6.35,6.35,0,0,0,2.42,5.09q2.43,2,9,2h15.36a37.31,37.31,0,0,1,15.4,3.07,27.17,27.17,0,0,1,10.75,8.25,19,19,0,0,1,3.92,11.8q0,12.53-10.63,19.23t-30,6.71q-13.57,0-21.41-2.79t-11.2-8.48q-3.34-5.7-3.35-14.35H453a15.65,15.65,0,0,0,1.94,8.16q1.95,3.24,7,4.81t14.63,1.58a61.36,61.36,0,0,0,15.32-1.58q5.94-1.58,8.81-4.68a11,11,0,0,0,2.87-7.72,9.89,9.89,0,0,0-5.5-9.14q-5.49-3.06-13.74-3.07H469.18q-11,0-16.21-4.85a14.85,14.85,0,0,1-5.21-11.15,15.08,15.08,0,0,1,2.38-8,22.08,22.08,0,0,1,7-6.87,26.9,26.9,0,0,1-10.83-9.62,26.4,26.4,0,0,1-3.47-13.9,27.74,27.74,0,0,1,4.28-15.31,29.31,29.31,0,0,1,12-10.47,39.46,39.46,0,0,1,17.7-3.8,151.85,151.85,0,0,0,17.46-.93,59.78,59.78,0,0,0,11.52-2.46Q510.55,104.09,515.57,101.91ZM476.77,119q-10.26,0-15.15,5.54t-4.89,14.1q0,8.65,5,14.23t15.36,5.57q9,0,13.78-5.25t4.72-14.63q0-9.61-4.72-14.59T476.77,119Z" fill="#231f20"/><path d="M535.21,225.4V213.52H616V225.4Z" fill="#231f20"/><path d="M653.93,122a34.36,34.36,0,0,1,10.79-9.49,27.42,27.42,0,0,1,13.45-3.36q11.4,0,18.43,5.5t10.27,15.47a76,76,0,0,1,3.23,23.32,63.21,63.21,0,0,1-3.88,22.91,35.36,35.36,0,0,1-11.36,15.8q-7.47,5.74-18.46,5.74-14.79,0-23.2-10.67l-1,8.81H640.35V76.69L653.93,75Zm19.23,64.9q10.68,0,16.41-8.24t5.74-25.3a64.77,64.77,0,0,0-2.26-18.55q-2.26-7.4-6.75-11.07a16.84,16.84,0,0,0-11-3.68,19.56,19.56,0,0,0-12.49,4.25,41.45,41.45,0,0,0-8.85,9.41v42.19a25.54,25.54,0,0,0,8.36,8A21,21,0,0,0,673.16,186.93Z" fill="#231f20"/><path d="M738.14,196.06V185.64H751.4V121.39H738.14V111h23.6l2.51,20.12q4.92-10.5,12-16.24t18.59-5.74a34.45,34.45,0,0,1,6.34.53q2.79.53,5.7,1.33l-4,12.12c-1.78-.48-3.4-.85-4.85-1.09a31.06,31.06,0,0,0-5-.36,23.09,23.09,0,0,0-16.81,7q-7,6.94-11.24,21v36h17.3v10.42Zm55.61-56.33V121.22L795.12,111h11.72l-1.94,28.77Z" fill="#231f20"/><path d="M895.25,177.47q0,5.1,1.7,7.44a10,10,0,0,0,5.26,3.48l-3.32,9.53a22,22,0,0,1-9.62-3.51,15.75,15.75,0,0,1-6-8.45,29.39,29.39,0,0,1-11.47,8.93,37.27,37.27,0,0,1-15.2,3q-12.76,0-20.12-7.19t-7.36-19.07q0-13.18,10.27-20.21t29.66-7H881.6v-7.11q0-9.21-5.38-13t-14.91-3.84a56.45,56.45,0,0,0-9.86,1,78.58,78.58,0,0,0-12.29,3.35l-3.55-10.26a85,85,0,0,1,14.71-4.13,76.17,76.17,0,0,1,13.09-1.21q15.93,0,23.88,7.4t8,20.08ZM860.1,187.58a24.52,24.52,0,0,0,12-3.19,26.87,26.87,0,0,0,9.46-8.85V153.63H869.31q-14.05,0-19.84,4.85a16.13,16.13,0,0,0-5.78,13q0,7.94,4.08,12T860.1,187.58Z" fill="#231f20"/><path d="M931.3,196.06V111h11.56l1,11.8a34.08,34.08,0,0,1,13-10.06A36.67,36.67,0,0,1,972,109.18q12.53,0,18.23,6.63t5.7,18.43v61.82H982.38v-51.8a83.27,83.27,0,0,0-1-14.11q-1-5.37-4-7.84t-9.54-2.46a21,21,0,0,0-9.42,2.18,32,32,0,0,0-7.84,5.46,41.35,41.35,0,0,0-5.69,6.58v62Z" fill="#231f20"/><path d="M1066.75,186.2a33.31,33.31,0,0,0,11.92-2.1,48.18,48.18,0,0,0,10.23-5.33l6.62,8.89a41.42,41.42,0,0,1-13.41,7.51,46.09,46.09,0,0,1-15.36,2.75q-12.69,0-21.62-5.45a35.24,35.24,0,0,1-13.62-15.36q-4.68-9.9-4.68-23.23a53.64,53.64,0,0,1,4.72-22.92,37.59,37.59,0,0,1,13.66-16q8.94-5.82,21.7-5.82a46.56,46.56,0,0,1,15.32,2.47,42.1,42.1,0,0,1,13.13,7.39l-6.63,9a44.21,44.21,0,0,0-10.87-5.69,33.44,33.44,0,0,0-11.11-1.9,22.83,22.83,0,0,0-18.1,8.24q-7.11,8.25-7.11,25.14,0,11.31,3.27,18.46a22.63,22.63,0,0,0,9,10.51A25,25,0,0,0,1066.75,186.2Z" fill="#231f20"/><path d="M1138.84,75.4v47.2a31.66,31.66,0,0,1,12.33-10.06,35.19,35.19,0,0,1,14.83-3.36q12.43,0,18.18,6.63t5.74,18.43v61.82h-13.58v-61.5q0-7.68-3.55-11.19c-2.38-2.35-6.09-3.52-11.16-3.52a20.39,20.39,0,0,0-9.21,2.18,33.4,33.4,0,0,0-7.84,5.42,37.48,37.48,0,0,0-5.74,6.62v62h-13.58V76.85Z" fill="#231f20"/><circle cx="154.79" cy="154.23" r="10.02" transform="translate(-46.93 238.21) rotate(-67.5)" fill="#231f20"/><path d="M197.63,258.61c-3.43-10.76-6.45-20.25-.41-29.39.95-1.16,1.88-2.32,2.79-3.5.23-.25.45-.49.69-.73a6,6,0,0,0,1.25-1.84A151.88,151.88,0,0,0,222.67,80.69,122.85,122.85,0,0,0,65.34,7.43,99.49,99.49,0,0,0,6,134.84,80.78,80.78,0,0,0,109.48,183a6,6,0,1,0-4.11-11.27,68.79,68.79,0,0,1-88.08-41,87.48,87.48,0,0,1,52.16-112,110.84,110.84,0,0,1,142,66.09,139.89,139.89,0,0,1-20.49,133.07,39.06,39.06,0,0,0-3.35,4.21,139,139,0,0,1-59,41.82,16.9,16.9,0,1,0,4.31,11.24v0a150.81,150.81,0,0,0,49.2-29.93c.65,6.17,2.51,12,4.12,17.08,2.68,8.4,4.31,14.15,2.69,18.65a16.94,16.94,0,1,0,9.21,8.39C204.33,279.65,200.79,268.55,197.63,258.61Zm-81.69,21.47a4.94,4.94,0,1,1,4.94-4.94A4.94,4.94,0,0,1,115.94,280.08Zm70.45,20.14a4.93,4.93,0,1,1,0-7A4.95,4.95,0,0,1,186.39,300.22Z" fill="#231f20"/></g></g></svg>